<svg width="12" height="14" viewBox="0 0 12 14" fill="none" xmlns="http://www.w3.org/2000/svg">
<path d="M10 6H2V14L6.06452 12.336L10 14V6Z" fill="#2563EB"/>
<path d="M6 0L8.61 1.47935L11.1962 3L11.22 6L11.1962 9L8.61 10.5207L6 12L3.39 10.5207L0.803848 9L0.78 6L0.803848 3L3.39 1.47935L6 0Z" fill="#3B82F6"/>
<path d="M6 1L8.175 2.23279L10.3301 3.5L10.35 6L10.3301 8.5L8.175 9.76721L6 11L3.825 9.76721L1.66987 8.5L1.65 6L1.66987 3.5L3.825 2.23279L6 1Z" fill="#60A5FA"/>
<path d="M6 3L6.96985 4.66512L8.85317 5.07295L7.56924 6.50988L7.76336 8.42705L6 7.65L4.23664 8.42705L4.43076 6.50988L3.14683 5.07295L5.03015 4.66512L6 3Z" fill="#BFDBFE"/>
</svg>
