<svg width="16" height="16" viewBox="0 0 16 16" fill="none" xmlns="http://www.w3.org/2000/svg">
<path d="M8.66671 4.66668C8.66671 4.29849 8.36823 4.00001 8.00004 4.00001C7.63185 4.00001 7.33337 4.29849 7.33337 4.66668V8.00001C7.33337 8.17682 7.40361 8.34639 7.52864 8.47141L9.86197 10.8047C10.1223 11.0651 10.5444 11.0651 10.8048 10.8047C11.0651 10.5444 11.0651 10.1223 10.8048 9.86194L8.66671 7.72387V4.66668Z" fill="#A1A1AA"/>
<path fill-rule="evenodd" clip-rule="evenodd" d="M8.00004 1.33334C4.31814 1.33334 1.33337 4.31811 1.33337 8.00001C1.33337 11.6819 4.31814 14.6667 8.00004 14.6667C11.6819 14.6667 14.6667 11.6819 14.6667 8.00001C14.6667 4.31811 11.6819 1.33334 8.00004 1.33334ZM2.66671 8.00001C2.66671 5.05449 5.05452 2.66668 8.00004 2.66668C10.9456 2.66668 13.3334 5.05449 13.3334 8.00001C13.3334 10.9455 10.9456 13.3333 8.00004 13.3333C5.05452 13.3333 2.66671 10.9455 2.66671 8.00001Z" fill="#A1A1AA"/>
</svg>
