<svg width="12" height="15" viewBox="0 0 12 15" fill="none" xmlns="http://www.w3.org/2000/svg">
<path fill-rule="evenodd" clip-rule="evenodd" d="M5.99996 3.66666C3.05444 3.66666 0.666626 6.05447 0.666626 8.99999C0.666626 11.9455 3.05444 14.3333 5.99996 14.3333C8.94548 14.3333 11.3333 11.9455 11.3333 8.99999C11.3333 6.05447 8.94548 3.66666 5.99996 3.66666ZM1.99996 8.99999C1.99996 6.79085 3.79082 4.99999 5.99996 4.99999C8.2091 4.99999 9.99996 6.79085 9.99996 8.99999C9.99996 11.2091 8.2091 13 5.99996 13C3.79082 13 1.99996 11.2091 1.99996 8.99999Z" fill="#A1A1AA"/>
<path fill-rule="evenodd" clip-rule="evenodd" d="M5.33333 0.333344H2V1.66668L2.96972 3.60611C3.69142 3.16334 4.48922 2.87379 5.33333 2.7732V0.333344ZM6.66667 2.7732C7.51079 2.87379 8.30858 3.16334 9.03028 3.60611L10 1.66668V0.333344H6.66667V2.7732Z" fill="#A1A1AA"/>
<path fill-rule="evenodd" clip-rule="evenodd" d="M8.66671 8.66666C8.66671 8.11437 8.21899 7.66666 7.66671 7.66666H6.33337V10.3333H7.00004V9.66666H7.66671C8.21899 9.66666 8.66671 9.21894 8.66671 8.66666ZM8.00004 8.66666C8.00004 8.85075 7.8508 8.99999 7.66671 8.99999H7.00004V8.33332H7.66671C7.8508 8.33332 8.00004 8.48256 8.00004 8.66666Z" fill="#A1A1AA"/>
<path d="M4.66671 9.33332L5.33337 10.3333H6.00004L5.08684 9.00456L6.00004 7.66666H5.33337L4.66671 8.66666L4.00004 7.66666H3.33337L4.24658 8.99532L3.33337 10.3333H4.00004L4.66671 9.33332Z" fill="#A1A1AA"/>
</svg>
