<svg width="16" height="16" viewBox="0 0 16 16" fill="none" xmlns="http://www.w3.org/2000/svg">
<path fill-rule="evenodd" clip-rule="evenodd" d="M11.6381 3.02865C9.44477 0.8353 5.88865 0.8353 3.6953 3.02865C1.50196 5.22199 1.50196 8.77811 3.6953 10.9715L7.1953 14.4715C7.32033 14.5965 7.4899 14.6667 7.66671 14.6667C7.84352 14.6667 8.01309 14.5965 8.13811 14.4715L11.6381 10.9715C13.8315 8.77811 13.8315 5.22199 11.6381 3.02865ZM4.63811 3.97146C6.31076 2.29881 9.02266 2.29881 10.6953 3.97145C12.3679 5.6441 12.3679 8.356 10.6953 10.0286L7.66671 13.0572L4.63811 10.0286C2.96546 8.356 2.96546 5.6441 4.63811 3.97146Z" fill="#A1A1AA"/>
<ellipse cx="7.66667" cy="7.00001" rx="1.66667" ry="1.66667" fill="#A1A1AA"/>
</svg>
